<svg width="16" height="16" viewBox="0 0 16 16" fill="none" xmlns="http://www.w3.org/2000/svg">
<rect width="16" height="16" rx="8" fill="#2E2C4B"/>
<path fill-rule="evenodd" clip-rule="evenodd" d="M7.55341 5.07817C7.30676 4.83153 7.30676 4.43163 7.55341 4.18499C7.80005 3.93834 8.19995 3.93834 8.44659 4.18499L11.815 7.55341C11.8227 7.56111 11.8302 7.56897 11.8374 7.57697C11.8866 7.63138 11.9246 7.69228 11.9514 7.75673C11.9517 7.75723 11.9519 7.75774 11.9521 7.75824C11.983 7.83271 12 7.91436 12 8C12 8.08631 11.9827 8.16857 11.9513 8.24351C11.9217 8.31468 11.8784 8.38152 11.8215 8.44005C11.8194 8.44222 11.8172 8.44437 11.8151 8.44651L11.815 8.44659L11.8149 8.44668L8.44659 11.815C8.19995 12.0617 7.80005 12.0617 7.55341 11.815C7.30676 11.5684 7.30676 11.1685 7.55341 10.9218L9.84366 8.63158H4.63158C4.28277 8.63158 4 8.34881 4 8C4 7.65119 4.28277 7.36842 4.63158 7.36842H9.84366L7.55341 5.07817Z" fill="white"/>
</svg>
