<svg width="62" height="20" viewBox="0 0 62 20" fill="none" xmlns="http://www.w3.org/2000/svg">
<g clip-path="url(#clip0_20_827)">
<path d="M38.7341 4.1521H27.3039C27.2383 4.1521 27.2145 4.2361 27.2681 4.2721L28.5061 5.1001L29.6368 5.8941C29.6865 5.9301 29.7481 5.9481 29.8097 5.9501L34.7896 5.9841C34.9227 5.9841 35.032 6.1181 35.032 6.2821V7.0821C35.032 7.8741 34.5332 8.1281 33.792 8.1281H25.7042C25.116 8.1281 24.4861 7.6761 24.4443 6.9181V2.9181C24.494 2.1321 25.0027 1.7081 25.5929 1.7081H33.6887C34.4995 1.7081 34.8909 2.0361 34.8909 2.6441V2.8281H39.9185V2.3461C39.9185 1.0181 38.3904 0.00610352 36.8543 0.00610352H22.8427C21.2688 0.00610352 19.5579 0.986104 19.5579 3.0661V6.7681C19.5579 8.7441 21.3006 9.8281 22.8745 9.8281H36.8761C38.609 9.8281 39.9185 9.1521 39.9185 6.7681V5.1781C39.9185 4.4441 39.6999 4.1501 38.7341 4.1501V4.1521Z" fill="white"/>
<path d="M19.6035 9.83401H13.644C13.4711 9.83401 13.3002 9.78601 13.1531 9.69601L8.1832 6.39401C7.86327 6.20001 7.49763 6.09601 7.12404 6.09601H4.90833V9.83201H0V0.0100098L4.90833 0.0140098V3.74801H7.0982C7.46981 3.74801 7.83545 3.64601 8.15538 3.45201L13.3837 0.14601C13.5307 0.0560098 13.6996 0.0100098 13.8725 0.0100098H19.6015L12.5987 4.61001L10.7804 4.04401L19.6035 9.83401Z" fill="white"/>
<path d="M47.9129 0H41.9136V9.83H46.804V2.758L50.5677 6.312H53.7592L57.0837 2.758V9.83H61.9742V0H55.9749L52.3721 3.428L53.6856 5.136L47.9129 0Z" fill="white"/>
<path d="M35.3081 17.1995H35.9129V19.6815H35.3081V17.1995Z" fill="white"/>
<path d="M36.7442 17.7372H36.1929V17.1995H37.9111V17.7372H37.3511V19.6815H36.7421V17.7372H36.7442Z" fill="white"/>
<path d="M38.1912 17.1995H38.7959V18.1759H39.7619V17.1995H40.3624V19.6815H39.7619V18.7007H38.7959V19.6815H38.1912V17.1995Z" fill="white"/>
<path d="M34.4406 17.1995L33.9897 18.3674L33.496 17.1995H32.8699L33.0216 17.5802L33.184 17.9673L32.9767 17.7243L32.7267 18.3717L32.2288 17.1995H31.5962L32.6861 19.7654H32.763L33.3507 18.333L33.9598 19.7654H34.0431L35.071 17.1995H34.4406Z" fill="white"/>
<path d="M49.8114 13.3433H48.3015V19.6837H49.8114V13.3433Z" fill="white"/>
<path d="M61.6669 15.8331V17.1016H58.8369V18.4066H61.974V19.6837H57.4272V13.3433H61.974V14.6204H58.8369V15.8266L61.6669 15.8331Z" fill="white"/>
<path d="M56.1711 14.8736C55.9002 14.3971 55.5206 14.0215 55.028 13.7511C54.5417 13.4785 53.9659 13.3433 53.3006 13.3433H50.6433V19.6837H53.3006C53.9659 19.6837 54.5439 19.5485 55.028 19.2759C55.5206 19.0033 55.9002 18.6298 56.1711 18.1533C56.4483 17.6768 56.5848 17.1295 56.5848 16.5135C56.5848 15.8975 56.4462 15.3523 56.1711 14.8736ZM54.8382 17.5266C54.6825 17.8099 54.4671 18.031 54.1899 18.1877C53.919 18.3379 53.6119 18.413 53.2622 18.413H52.053V14.6096H53.2622C53.6098 14.6096 53.919 14.689 54.1899 14.8457C54.4671 14.996 54.6825 15.2149 54.8382 15.4982C54.9939 15.7816 55.0728 16.1207 55.0728 16.5135C55.0728 16.9063 54.9939 17.2454 54.8382 17.5287V17.5266Z" fill="white"/>
<path d="M47.47 18.4237V19.6836H46.7918C46.521 19.6836 46.2757 19.6192 46.0539 19.4926C45.8321 19.3595 45.6573 19.1878 45.5314 18.9753L43.7251 16.258H44.8533C45.2393 16.258 45.5506 15.9446 45.5506 15.5561C45.5506 15.1676 45.2371 14.8543 44.8533 14.8543H43.4436V19.6815H41.9294V13.3411H44.8106C45.2371 13.3411 45.6231 13.4334 45.9729 13.6222C46.3269 13.809 46.6063 14.0687 46.811 14.4014C47.02 14.7341 47.1266 15.1161 47.1266 15.5518C47.1266 15.9575 47.0307 16.3224 46.8387 16.6486C46.6468 16.9685 46.393 17.2303 46.0795 17.4299L46.6575 18.2992C46.6575 18.2992 46.7087 18.37 46.7492 18.3894C46.7918 18.413 46.8451 18.4258 46.9113 18.4258H47.47" fill="white"/>
</g>
<defs>
<clipPath id="clip0_20_827">
<rect width="62" height="20" fill="white"/>
</clipPath>
</defs>
</svg>
